# MagicaVoxel @ Ephtracy

# group
o 

# material
mtllib untitled.mtl
usemtl palette

# normals
vn -1 0 0
vn 1 0 0
vn 0 0 1
vn 0 0 -1
vn 0 -1 0
vn 0 1 0

# texcoords
vt 0.369141 0.5
vt 0.373047 0.5

# verts
v 0.4 2 -1.6
v 0.4 2 -1.9
v 0.4 2.1 -1.6
v 0.4 2.1 -1.9
v 0.6 2 -1.9
v 0.6 2 -2.2
v 0.6 2.1 -1.9
v 0.6 2.1 -2.2
v 0.7 2 -2.4
v 0.7 2 -2.7
v 0.7 2.1 -1.7
v 0.7 2.1 -1.9
v 0.7 2.1 -2
v 0.7 2.1 -2.4
v 0.7 2.1 -2.7
v 0.7 2.2 -1.7
v 0.7 2.2 -1.9
v 0.7 2.2 -2
v 0.8 2 -1.5
v 0.8 2 -1.6
v 0.8 2.1 -1.5
v 0.8 2.1 -1.6
v 0.8 2.1 -2.4
v 0.8 2.1 -2.7
v 0.8 2.2 -2.4
v 0.8 2.2 -2.7
v 0.9 2 -2.7
v 0.9 2 -2.8
v 0.9 2.1 -2.7
v 0.9 2.1 -2.8
v 1 2.1 -1.5
v 1 2.1 -1.6
v 1 2.1 -1.7
v 1 2.2 -1.5
v 1 2.2 -1.6
v 1 2.2 -1.7
v 1 2.2 -1.9
v 1 2.2 -2
v 1 2.2 -2.2
v 1 2.3 -1.9
v 1 2.3 -2.2
v 1.1 2 -2.2
v 1.1 2 -2.4
v 1.1 2.1 -2.2
v 1.1 2.1 -2.4
v 1.1 2.3 -2.1
v 1.1 2.3 -2.2
v 1.1 2.3 -2.4
v 1.1 2.4 -2.1
v 1.1 2.4 -2.4
v 1.8 2.1 -2.1
v 1.8 2.1 -2.4
v 1.8 2.2 -2.1
v 1.8 2.2 -2.2
v 1.8 2.2 -2.4
v 1.9 2.2 -2.3
v 1.9 2.2 -2.4
v 1.9 2.2 -2.6
v 1.9 2.3 -2.3
v 1.9 2.3 -2.4
v 1.9 2.3 -2.6
v 2.1 2.1 -1.7
v 2.1 2.1 -2
v 2.1 2.2 -1.7
v 2.1 2.2 -1.9
v 2.1 2.2 -2
v 2.3 2 -1.8
v 2.3 2 -1.9
v 2.3 2.1 -1.8
v 2.3 2.1 -1.9
v 2.9 2 -1.9
v 2.9 2 -2.1
v 2.9 2.1 -1.5
v 2.9 2.1 -1.6
v 2.9 2.1 -1.7
v 2.9 2.1 -1.9
v 2.9 2.1 -2.1
v 2.9 2.1 -2.4
v 2.9 2.1 -2.7
v 2.9 2.2 -1.5
v 2.9 2.2 -1.7
v 2.9 2.2 -2.4
v 2.9 2.2 -2.6
v 2.9 2.2 -2.7
v 3.1 2.2 -1.9
v 3.1 2.2 -2.1
v 3.1 2.2 -2.2
v 3.1 2.3 -1.9
v 3.1 2.3 -2.1
v 3.1 2.3 -2.2
v 3.2 2 -1.5
v 3.2 2 -1.6
v 3.2 2 -1.8
v 3.2 2 -2.5
v 3.2 2 -2.8
v 3.2 2.1 -1.5
v 3.2 2.1 -1.6
v 3.2 2.1 -1.8
v 3.2 2.1 -2.5
v 3.2 2.1 -2.8
v 3.4 2 -2.4
v 3.4 2 -2.5
v 3.4 2.1 -2.4
v 3.4 2.1 -2.5
v 3.5 2.3 -2.1
v 3.5 2.3 -2.3
v 3.5 2.3 -2.4
v 3.5 2.4 -2.1
v 3.5 2.4 -2.4
v 3.7 2.1 -2.1
v 3.7 2.1 -2.2
v 3.7 2.1 -2.4
v 3.7 2.2 -2.1
v 3.7 2.2 -2.2
v 3.7 2.2 -2.3
v 3.7 2.2 -2.4
v 3.7 2.2 -2.6
v 3.7 2.3 -2.3
v 3.7 2.3 -2.4
v 3.7 2.3 -2.6
v 3.8 2 -2.1
v 3.8 2 -2.4
v 3.8 2.1 -2.1
v 3.8 2.1 -2.4
v 0.8 2 -1.5
v 0.8 2.1 -1.5
v 1 2.1 -1.5
v 1 2.2 -1.5
v 2.9 2.1 -1.5
v 2.9 2.2 -1.5
v 3.2 2 -1.5
v 3.2 2.1 -1.5
v 0.4 2 -1.6
v 0.4 2.1 -1.6
v 0.8 2 -1.6
v 0.8 2.1 -1.6
v 0.7 2.1 -1.7
v 0.7 2.2 -1.7
v 0.9 2.1 -1.7
v 0.9 2.2 -1.7
v 1 2.1 -1.7
v 1 2.2 -1.7
v 1 2.2 -1.9
v 1 2.3 -1.9
v 1.3 2.2 -1.9
v 1.3 2.3 -1.9
v 2.1 2.2 -1.9
v 2.3 2 -1.9
v 2.3 2.1 -1.9
v 2.8 2.2 -1.9
v 2.8 2.3 -1.9
v 2.9 2 -1.9
v 2.9 2.1 -1.9
v 3.1 2.2 -1.9
v 3.1 2.3 -1.9
v 1.1 2.3 -2.1
v 1.1 2.4 -2.1
v 1.4 2.3 -2.1
v 1.4 2.4 -2.1
v 1.5 2.3 -2.1
v 1.5 2.4 -2.1
v 1.8 2.1 -2.1
v 1.8 2.2 -2.1
v 2.9 2 -2.1
v 2.9 2.1 -2.1
v 3.1 2.1 -2.1
v 3.1 2.2 -2.1
v 3.1 2.3 -2.1
v 3.5 2.3 -2.1
v 3.5 2.4 -2.1
v 3.7 2.1 -2.1
v 3.7 2.2 -2.1
v 3.8 2 -2.1
v 3.8 2.1 -2.1
v 1.9 2.2 -2.3
v 1.9 2.3 -2.3
v 3.5 2.3 -2.3
v 3.7 2.2 -2.3
v 3.7 2.3 -2.3
v 0.7 2 -2.4
v 0.7 2.1 -2.4
v 0.8 2.1 -2.4
v 0.8 2.2 -2.4
v 1 2.1 -2.4
v 1 2.2 -2.4
v 1.1 2 -2.4
v 1.1 2.1 -2.4
v 1.6 2.1 -2.4
v 1.6 2.2 -2.4
v 1.8 2.1 -2.4
v 1.8 2.2 -2.4
v 2.1 2.1 -1.7
v 2.1 2.2 -1.7
v 2.9 2.1 -1.7
v 2.9 2.2 -1.7
v 2.3 2 -1.8
v 2.3 2.1 -1.8
v 3.2 2 -1.8
v 3.2 2.1 -1.8
v 0.4 2 -1.9
v 0.4 2.1 -1.9
v 0.5 2 -1.9
v 0.5 2.1 -1.9
v 0.6 2 -1.9
v 0.6 2.1 -1.9
v 0.7 2.1 -2
v 0.7 2.2 -2
v 1 2.2 -2
v 2.1 2.1 -2
v 2.1 2.2 -2
v 0.6 2 -2.2
v 0.6 2.1 -2.2
v 1 2.2 -2.2
v 1 2.3 -2.2
v 1.1 2 -2.2
v 1.1 2.1 -2.2
v 1.1 2.3 -2.2
v 1.8 2.2 -2.2
v 3.1 2.2 -2.2
v 3.1 2.3 -2.2
v 1.1 2.3 -2.4
v 1.1 2.4 -2.4
v 1.9 2.3 -2.4
v 2 2.3 -2.4
v 2 2.4 -2.4
v 2.9 2.1 -2.4
v 2.9 2.2 -2.4
v 3.2 2.3 -2.4
v 3.2 2.4 -2.4
v 3.4 2 -2.4
v 3.4 2.1 -2.4
v 3.5 2.3 -2.4
v 3.5 2.4 -2.4
v 3.7 2.1 -2.4
v 3.7 2.2 -2.4
v 3.8 2 -2.4
v 3.8 2.1 -2.4
v 3.2 2 -2.5
v 3.2 2.1 -2.5
v 3.4 2 -2.5
v 3.4 2.1 -2.5
v 1.9 2.2 -2.6
v 1.9 2.3 -2.6
v 2.9 2.2 -2.6
v 3.7 2.2 -2.6
v 3.7 2.3 -2.6
v 0.7 2 -2.7
v 0.7 2.1 -2.7
v 0.8 2.1 -2.7
v 0.8 2.2 -2.7
v 0.9 2 -2.7
v 0.9 2.1 -2.7
v 0.9 2.2 -2.7
v 1.7 2.1 -2.7
v 1.7 2.2 -2.7
v 1.8 2.1 -2.7
v 1.8 2.2 -2.7
v 2.9 2.1 -2.7
v 2.9 2.2 -2.7
v 0.9 2 -2.8
v 0.9 2.1 -2.8
v 3.2 2 -2.8
v 3.2 2.1 -2.8
v 0.8 2 -1.5
v 3.2 2 -1.5
v 0.4 2 -1.6
v 0.8 2 -1.6
v 3.2 2 -1.6
v 0.5 2 -1.7
v 0.9 2 -1.7
v 2.3 2 -1.8
v 3.2 2 -1.8
v 0.4 2 -1.9
v 0.5 2 -1.9
v 0.6 2 -1.9
v 0.9 2 -1.9
v 2.3 2 -1.9
v 2.9 2 -1.9
v 2.9 2 -2.1
v 3.8 2 -2.1
v 0.6 2 -2.2
v 1.1 2 -2.2
v 0.7 2 -2.4
v 1.1 2 -2.4
v 3.4 2 -2.4
v 3.8 2 -2.4
v 3.2 2 -2.5
v 3.4 2 -2.5
v 0.7 2 -2.7
v 0.9 2 -2.7
v 0.9 2 -2.8
v 3.2 2 -2.8
v 2.1 2.2 -1.9
v 2.8 2.2 -1.9
v 3.1 2.2 -1.9
v 1 2.2 -2
v 2.1 2.2 -2
v 2.8 2.2 -2
v 1.8 2.2 -2.1
v 3.1 2.2 -2.1
v 1 2.2 -2.2
v 1.8 2.2 -2.2
v 2.9 2.2 -2.4
v 3.7 2.2 -2.4
v 2.9 2.2 -2.6
v 3.7 2.2 -2.6
v 3.1 2.3 -2.1
v 3.5 2.3 -2.1
v 1.1 2.3 -2.2
v 3.1 2.3 -2.2
v 1.9 2.3 -2.3
v 3.5 2.3 -2.3
v 1.1 2.3 -2.4
v 1.9 2.3 -2.4
v 0.8 2.1 -1.5
v 1 2.1 -1.5
v 2.9 2.1 -1.5
v 3.2 2.1 -1.5
v 0.4 2.1 -1.6
v 0.8 2.1 -1.6
v 1 2.1 -1.6
v 2.9 2.1 -1.6
v 3.2 2.1 -1.6
v 0.5 2.1 -1.7
v 0.7 2.1 -1.7
v 0.9 2.1 -1.7
v 1 2.1 -1.7
v 2.1 2.1 -1.7
v 2.9 2.1 -1.7
v 2.3 2.1 -1.8
v 3.2 2.1 -1.8
v 0.4 2.1 -1.9
v 0.5 2.1 -1.9
v 0.6 2.1 -1.9
v 0.7 2.1 -1.9
v 2.3 2.1 -1.9
v 2.9 2.1 -1.9
v 0.7 2.1 -2
v 2.1 2.1 -2
v 1.8 2.1 -2.1
v 2.9 2.1 -2.1
v 3.7 2.1 -2.1
v 3.8 2.1 -2.1
v 0.6 2.1 -2.2
v 1.1 2.1 -2.2
v 3.7 2.1 -2.2
v 0.7 2.1 -2.4
v 0.8 2.1 -2.4
v 1.1 2.1 -2.4
v 1.6 2.1 -2.4
v 1.8 2.1 -2.4
v 2.9 2.1 -2.4
v 3.4 2.1 -2.4
v 3.7 2.1 -2.4
v 3.8 2.1 -2.4
v 3.2 2.1 -2.5
v 3.4 2.1 -2.5
v 0.7 2.1 -2.7
v 0.8 2.1 -2.7
v 0.9 2.1 -2.7
v 1.7 2.1 -2.7
v 1.8 2.1 -2.7
v 2.9 2.1 -2.7
v 0.9 2.1 -2.8
v 3.2 2.1 -2.8
v 1 2.2 -1.5
v 2.9 2.2 -1.5
v 1 2.2 -1.6
v 2.1 2.2 -1.6
v 0.7 2.2 -1.7
v 0.9 2.2 -1.7
v 1 2.2 -1.7
v 2.1 2.2 -1.7
v 2.9 2.2 -1.7
v 0.7 2.2 -1.9
v 0.9 2.2 -1.9
v 1 2.2 -1.9
v 1.3 2.2 -1.9
v 2.1 2.2 -1.9
v 0.7 2.2 -2
v 1 2.2 -2
v 3.1 2.2 -2.1
v 3.7 2.2 -2.1
v 1.8 2.2 -2.2
v 3.1 2.2 -2.2
v 3.7 2.2 -2.2
v 1.9 2.2 -2.3
v 3.7 2.2 -2.3
v 0.8 2.2 -2.4
v 1 2.2 -2.4
v 1.6 2.2 -2.4
v 1.8 2.2 -2.4
v 1.9 2.2 -2.4
v 1 2.2 -2.5
v 1.6 2.2 -2.5
v 0.9 2.2 -2.6
v 1.7 2.2 -2.6
v 1.9 2.2 -2.6
v 2.9 2.2 -2.6
v 0.8 2.2 -2.7
v 0.9 2.2 -2.7
v 1.7 2.2 -2.7
v 1.8 2.2 -2.7
v 2.9 2.2 -2.7
v 1 2.3 -1.9
v 1.3 2.3 -1.9
v 2.8 2.3 -1.9
v 3.1 2.3 -1.9
v 1.3 2.3 -2
v 2.8 2.3 -2
v 1.1 2.3 -2.1
v 1.4 2.3 -2.1
v 1.5 2.3 -2.1
v 3.1 2.3 -2.1
v 1 2.3 -2.2
v 1.1 2.3 -2.2
v 3.5 2.3 -2.3
v 3.7 2.3 -2.3
v 1.9 2.3 -2.4
v 2 2.3 -2.4
v 3.2 2.3 -2.4
v 3.5 2.3 -2.4
v 3.7 2.3 -2.4
v 1.9 2.3 -2.6
v 3.7 2.3 -2.6
v 1.1 2.4 -2.1
v 1.4 2.4 -2.1
v 1.5 2.4 -2.1
v 3.5 2.4 -2.1
v 1.4 2.4 -2.2
v 1.5 2.4 -2.2
v 2 2.4 -2.3
v 3.2 2.4 -2.3
v 1.1 2.4 -2.4
v 2 2.4 -2.4
v 3.2 2.4 -2.4
v 3.5 2.4 -2.4

# faces
f 3/1/1 2/1/1 1/1/1
f 4/1/1 2/1/1 3/1/1
f 7/1/1 6/1/1 5/1/1
f 8/1/1 6/1/1 7/1/1
f 14/1/1 10/1/1 9/1/1
f 15/1/1 10/1/1 14/1/1
f 16/2/1 12/2/1 11/2/1
f 17/1/1 13/1/1 12/1/1
f 17/2/1 12/2/1 16/2/1
f 18/1/1 13/1/1 17/1/1
f 21/2/1 20/2/1 19/2/1
f 22/2/1 20/2/1 21/2/1
f 25/1/1 24/1/1 23/1/1
f 26/1/1 24/1/1 25/1/1
f 29/1/1 28/1/1 27/1/1
f 30/1/1 28/1/1 29/1/1
f 34/1/1 32/1/1 31/1/1
f 35/2/1 33/2/1 32/2/1
f 35/1/1 32/1/1 34/1/1
f 36/2/1 33/2/1 35/2/1
f 40/1/1 39/1/1 38/1/1
f 40/1/1 38/1/1 37/1/1
f 41/1/1 39/1/1 40/1/1
f 44/1/1 43/1/1 42/1/1
f 45/1/1 43/1/1 44/1/1
f 49/1/1 47/1/1 46/1/1
f 49/1/1 48/1/1 47/1/1
f 50/1/1 48/1/1 49/1/1
f 53/1/1 52/1/1 51/1/1
f 54/1/1 52/1/1 53/1/1
f 55/1/1 52/1/1 54/1/1
f 59/1/1 57/1/1 56/1/1
f 60/2/1 58/2/1 57/2/1
f 60/1/1 57/1/1 59/1/1
f 61/2/1 58/2/1 60/2/1
f 62/1/2 63/1/2 64/1/2
f 64/1/2 63/1/2 65/1/2
f 65/1/2 63/1/2 66/1/2
f 67/1/2 68/1/2 69/1/2
f 69/1/2 68/1/2 70/1/2
f 71/1/2 72/1/2 76/1/2
f 76/1/2 72/1/2 77/1/2
f 74/1/2 75/1/2 80/1/2
f 73/1/2 74/1/2 80/1/2
f 80/1/2 75/1/2 81/1/2
f 78/2/2 79/2/2 82/2/2
f 82/2/2 79/2/2 83/2/2
f 83/2/2 79/2/2 84/2/2
f 85/1/2 86/1/2 88/1/2
f 86/1/2 87/1/2 88/1/2
f 88/1/2 87/1/2 89/1/2
f 89/1/2 87/1/2 90/1/2
f 91/2/2 92/2/2 96/2/2
f 92/1/2 93/1/2 97/1/2
f 96/2/2 92/2/2 97/2/2
f 97/1/2 93/1/2 98/1/2
f 94/1/2 95/1/2 99/1/2
f 99/1/2 95/1/2 100/1/2
f 101/1/2 102/1/2 103/1/2
f 103/1/2 102/1/2 104/1/2
f 105/1/2 106/1/2 108/1/2
f 106/1/2 107/1/2 108/1/2
f 108/1/2 107/1/2 109/1/2
f 110/2/2 111/2/2 113/2/2
f 111/1/2 112/1/2 114/1/2
f 113/2/2 111/2/2 114/2/2
f 114/1/2 112/1/2 115/1/2
f 115/1/2 112/1/2 116/1/2
f 115/1/2 116/1/2 118/1/2
f 116/2/2 117/2/2 119/2/2
f 118/1/2 116/1/2 119/1/2
f 119/2/2 117/2/2 120/2/2
f 121/1/2 122/1/2 123/1/2
f 123/1/2 122/1/2 124/1/2
f 127/2/3 126/2/3 125/2/3
f 129/2/3 127/2/3 125/2/3
f 129/1/3 128/1/3 127/1/3
f 130/1/3 128/1/3 129/1/3
f 131/2/3 129/2/3 125/2/3
f 132/2/3 129/2/3 131/2/3
f 135/1/3 134/1/3 133/1/3
f 136/1/3 134/1/3 135/1/3
f 139/2/3 138/2/3 137/2/3
f 140/2/3 138/2/3 139/2/3
f 141/1/3 140/1/3 139/1/3
f 142/1/3 140/1/3 141/1/3
f 145/1/3 144/1/3 143/1/3
f 146/1/3 144/1/3 145/1/3
f 147/2/3 146/2/3 145/2/3
f 150/2/3 146/2/3 147/2/3
f 151/2/3 146/2/3 150/2/3
f 152/1/3 149/1/3 148/1/3
f 153/1/3 149/1/3 152/1/3
f 154/1/3 151/1/3 150/1/3
f 155/1/3 151/1/3 154/1/3
f 158/1/3 157/1/3 156/1/3
f 159/1/3 157/1/3 158/1/3
f 160/2/3 159/2/3 158/2/3
f 161/2/3 159/2/3 160/2/3
f 165/1/3 163/1/3 162/1/3
f 166/1/3 163/1/3 165/1/3
f 166/1/3 165/1/3 164/1/3
f 167/1/3 163/1/3 166/1/3
f 168/1/3 161/1/3 160/1/3
f 169/1/3 161/1/3 168/1/3
f 170/1/3 161/1/3 169/1/3
f 171/2/3 167/2/3 166/2/3
f 171/1/3 166/1/3 164/1/3
f 172/2/3 167/2/3 171/2/3
f 173/1/3 171/1/3 164/1/3
f 174/1/3 171/1/3 173/1/3
f 177/1/3 176/1/3 175/1/3
f 178/1/3 177/1/3 175/1/3
f 179/1/3 177/1/3 178/1/3
f 182/1/3 181/1/3 180/1/3
f 184/1/3 182/1/3 180/1/3
f 184/1/3 183/1/3 182/1/3
f 185/1/3 183/1/3 184/1/3
f 186/1/3 184/1/3 180/1/3
f 187/2/3 185/2/3 184/2/3
f 187/1/3 184/1/3 186/1/3
f 188/2/3 185/2/3 187/2/3
f 189/2/3 185/2/3 188/2/3
f 190/1/3 189/1/3 188/1/3
f 191/1/3 189/1/3 190/1/3
f 192/1/4 193/1/4 194/1/4
f 194/1/4 193/1/4 195/1/4
f 196/1/4 197/1/4 198/1/4
f 198/1/4 197/1/4 199/1/4
f 200/1/4 201/1/4 202/1/4
f 202/1/4 201/1/4 203/1/4
f 202/2/4 203/2/4 204/2/4
f 204/2/4 203/2/4 205/2/4
f 206/1/4 207/1/4 208/1/4
f 206/1/4 208/1/4 209/1/4
f 209/1/4 208/1/4 210/1/4
f 211/1/4 212/1/4 215/1/4
f 215/1/4 212/1/4 216/1/4
f 213/1/4 214/1/4 217/1/4
f 213/1/4 217/1/4 218/1/4
f 218/1/4 217/1/4 219/1/4
f 219/1/4 217/1/4 220/1/4
f 221/1/4 222/1/4 223/1/4
f 223/1/4 222/1/4 224/1/4
f 224/1/4 222/1/4 225/1/4
f 224/2/4 225/2/4 228/2/4
f 228/2/4 225/2/4 229/2/4
f 226/1/4 227/1/4 231/1/4
f 228/1/4 229/1/4 232/1/4
f 232/1/4 229/1/4 233/1/4
f 230/1/4 231/1/4 234/1/4
f 231/1/4 227/1/4 234/1/4
f 234/1/4 227/1/4 235/1/4
f 230/1/4 234/1/4 236/1/4
f 236/1/4 234/1/4 237/1/4
f 238/1/4 239/1/4 240/1/4
f 240/1/4 239/1/4 241/1/4
f 242/2/4 243/2/4 244/2/4
f 244/2/4 243/2/4 245/2/4
f 245/2/4 243/2/4 246/2/4
f 247/1/4 248/1/4 249/1/4
f 247/1/4 249/1/4 251/1/4
f 249/1/4 250/1/4 251/1/4
f 251/1/4 250/1/4 252/1/4
f 252/1/4 250/1/4 253/1/4
f 252/2/4 253/2/4 254/2/4
f 254/2/4 253/2/4 255/2/4
f 254/1/4 255/1/4 256/1/4
f 256/1/4 255/1/4 257/1/4
f 256/2/4 257/2/4 258/2/4
f 258/2/4 257/2/4 259/2/4
f 260/1/4 261/1/4 262/1/4
f 262/1/4 261/1/4 263/1/4
f 267/2/5 265/2/5 264/2/5
f 268/2/5 265/2/5 267/2/5
f 269/1/5 267/1/5 266/1/5
f 269/1/5 268/1/5 267/1/5
f 270/1/5 268/1/5 269/1/5
f 271/1/5 268/1/5 270/1/5
f 272/1/5 268/1/5 271/1/5
f 273/1/5 269/1/5 266/1/5
f 274/2/5 270/2/5 269/2/5
f 274/1/5 269/1/5 273/1/5
f 275/2/5 270/2/5 274/2/5
f 276/1/5 271/1/5 270/1/5
f 276/2/5 270/2/5 275/2/5
f 277/1/5 271/1/5 276/1/5
f 279/1/5 278/1/5 277/1/5
f 279/1/5 277/1/5 276/1/5
f 279/1/5 276/1/5 275/1/5
f 281/1/5 279/1/5 275/1/5
f 281/1/5 280/1/5 279/1/5
f 282/1/5 280/1/5 281/1/5
f 284/1/5 280/1/5 282/1/5
f 285/1/5 280/1/5 284/1/5
f 286/1/5 280/1/5 285/1/5
f 287/1/5 284/1/5 283/1/5
f 287/1/5 285/1/5 284/1/5
f 288/1/5 285/1/5 287/1/5
f 289/1/5 287/1/5 283/1/5
f 290/1/5 287/1/5 289/1/5
f 291/1/5 287/1/5 290/1/5
f 292/1/5 287/1/5 291/1/5
f 297/2/5 294/2/5 293/2/5
f 298/1/5 295/1/5 294/1/5
f 298/2/5 294/2/5 297/2/5
f 299/1/5 297/1/5 296/1/5
f 299/1/5 298/1/5 297/1/5
f 300/1/5 295/1/5 298/1/5
f 300/1/5 298/1/5 299/1/5
f 301/1/5 299/1/5 296/1/5
f 302/1/5 299/1/5 301/1/5
f 305/2/5 304/2/5 303/2/5
f 306/2/5 304/2/5 305/2/5
f 310/1/5 308/1/5 307/1/5
f 311/1/5 310/1/5 309/1/5
f 312/1/5 308/1/5 310/1/5
f 312/1/5 310/1/5 311/1/5
f 313/1/5 311/1/5 309/1/5
f 314/1/5 311/1/5 313/1/5
f 315/2/6 316/2/6 320/2/6
f 320/2/6 316/2/6 321/2/6
f 317/2/6 318/2/6 322/2/6
f 322/2/6 318/2/6 323/2/6
f 320/1/6 321/1/6 324/1/6
f 319/1/6 320/1/6 324/1/6
f 324/1/6 321/1/6 325/1/6
f 325/1/6 321/1/6 326/1/6
f 326/1/6 321/1/6 327/1/6
f 322/1/6 323/1/6 329/1/6
f 328/1/6 329/1/6 330/1/6
f 329/1/6 323/1/6 331/1/6
f 330/1/6 329/1/6 331/1/6
f 319/1/6 324/1/6 332/1/6
f 324/2/6 325/2/6 333/2/6
f 332/1/6 324/1/6 333/1/6
f 333/2/6 325/2/6 334/2/6
f 334/2/6 325/2/6 335/2/6
f 328/1/6 330/1/6 336/1/6
f 334/1/6 335/1/6 338/1/6
f 336/1/6 337/1/6 339/1/6
f 328/1/6 336/1/6 339/1/6
f 338/1/6 339/1/6 340/1/6
f 339/1/6 337/1/6 341/1/6
f 340/1/6 339/1/6 341/1/6
f 334/1/6 338/1/6 344/1/6
f 338/1/6 340/1/6 344/1/6
f 344/1/6 340/1/6 345/1/6
f 342/1/6 343/1/6 346/1/6
f 345/1/6 340/1/6 349/1/6
f 349/1/6 340/1/6 350/1/6
f 350/1/6 340/1/6 351/1/6
f 346/1/6 343/1/6 354/1/6
f 354/1/6 343/1/6 355/1/6
f 352/1/6 353/1/6 356/1/6
f 356/1/6 353/1/6 357/1/6
f 347/1/6 348/1/6 358/1/6
f 358/1/6 348/1/6 359/1/6
f 352/1/6 356/1/6 363/1/6
f 361/1/6 362/1/6 364/1/6
f 362/1/6 363/1/6 364/1/6
f 360/1/6 361/1/6 364/1/6
f 363/1/6 356/1/6 365/1/6
f 364/1/6 363/1/6 365/1/6
f 366/1/6 367/1/6 368/1/6
f 368/1/6 367/1/6 369/1/6
f 368/2/6 369/2/6 372/2/6
f 369/1/6 367/1/6 373/1/6
f 372/2/6 369/2/6 373/2/6
f 373/1/6 367/1/6 374/1/6
f 370/2/6 371/2/6 375/2/6
f 371/1/6 372/1/6 376/1/6
f 375/2/6 371/2/6 376/2/6
f 372/1/6 373/1/6 376/1/6
f 376/1/6 373/1/6 377/1/6
f 377/1/6 373/1/6 378/1/6
f 378/1/6 373/1/6 379/1/6
f 375/1/6 376/1/6 380/1/6
f 376/1/6 377/1/6 380/1/6
f 380/1/6 377/1/6 381/1/6
f 382/2/6 383/2/6 385/2/6
f 385/2/6 383/2/6 386/2/6
f 384/1/6 385/1/6 387/1/6
f 385/1/6 386/1/6 387/1/6
f 387/1/6 386/1/6 388/1/6
f 384/1/6 387/1/6 392/1/6
f 392/1/6 387/1/6 393/1/6
f 390/2/6 391/2/6 394/2/6
f 389/1/6 390/1/6 394/1/6
f 391/1/6 392/1/6 395/1/6
f 394/2/6 391/2/6 395/2/6
f 389/1/6 394/1/6 396/1/6
f 394/1/6 395/1/6 396/1/6
f 395/1/6 392/1/6 397/1/6
f 396/1/6 395/1/6 397/1/6
f 392/2/6 393/2/6 398/2/6
f 389/1/6 396/1/6 400/1/6
f 396/2/6 397/2/6 401/2/6
f 400/1/6 396/1/6 401/1/6
f 397/1/6 392/1/6 402/1/6
f 401/2/6 397/2/6 402/2/6
f 392/2/6 398/2/6 403/2/6
f 402/1/6 392/1/6 403/1/6
f 398/2/6 399/2/6 403/2/6
f 403/2/6 399/2/6 404/2/6
f 405/1/6 406/1/6 409/1/6
f 406/2/6 407/2/6 409/2/6
f 407/1/6 408/1/6 410/1/6
f 409/2/6 407/2/6 410/2/6
f 405/1/6 409/1/6 411/1/6
f 409/1/6 410/1/6 411/1/6
f 411/1/6 410/1/6 412/1/6
f 412/1/6 410/1/6 413/1/6
f 410/1/6 408/1/6 414/1/6
f 413/1/6 410/1/6 414/1/6
f 405/1/6 411/1/6 415/1/6
f 415/1/6 411/1/6 416/1/6
f 417/1/6 418/1/6 422/1/6
f 422/1/6 418/1/6 423/1/6
f 420/2/6 421/2/6 424/2/6
f 419/2/6 420/2/6 424/2/6
f 422/2/6 423/2/6 424/2/6
f 421/2/6 422/2/6 424/2/6
f 424/2/6 423/2/6 425/2/6
f 426/1/6 427/1/6 430/1/6
f 427/2/6 428/2/6 430/2/6
f 428/1/6 429/1/6 431/1/6
f 430/2/6 428/2/6 431/2/6
f 430/1/6 431/1/6 432/1/6
f 431/1/6 429/1/6 432/1/6
f 432/1/6 429/1/6 433/1/6
f 426/1/6 430/1/6 434/1/6
f 430/1/6 432/1/6 434/1/6
f 432/2/6 433/2/6 435/2/6
f 434/1/6 432/1/6 435/1/6
f 433/1/6 429/1/6 436/1/6
f 435/2/6 433/2/6 436/2/6
f 436/1/6 429/1/6 437/1/6
